<?xml version="1.0" standalone="no"?>
<!DOCTYPE svg PUBLIC "-//W3C//DTD SVG 20010904//EN"
 "http://www.w3.org/TR/2001/REC-SVG-20010904/DTD/svg10.dtd">
<svg version="1.0" xmlns="http://www.w3.org/2000/svg"
 width="4570.000000pt" height="2208.000000pt" viewBox="0 0 4570.000000 2208.000000"
 preserveAspectRatio="xMidYMid meet">
<metadata>
Created by potrace 1.15, written by Peter Selinger 2001-2017
</metadata>
<g transform="translate(0.000000,2208.000000) scale(0.100000,-0.100000)"
fill="#000000" stroke="none">
<path d="M2685 22073 c-404 -61 -695 -188 -873 -378 -96 -103 -145 -210 -167
-365 l-5 -36 -198 0 c-165 0 -215 -3 -310 -22 -227 -46 -443 -137 -643 -271
-245 -164 -379 -321 -452 -529 -26 -73 -32 -105 -35 -204 -5 -137 12 -228 59
-328 141 -299 543 -564 1083 -717 88 -25 194 -32 464 -33 42 0 42 0 42 -37 1
-93 49 -226 112 -306 30 -37 191 -168 300 -243 88 -60 88 -59 88 -371 0 -147
-3 -278 -6 -290 -6 -21 -12 -23 -78 -24 -39 0 -107 -4 -150 -8 -125 -13 -116
25 -116 -486 0 -411 1 -434 19 -456 18 -23 25 -24 175 -27 l157 -3 -1 -1055
c-1 -934 1 -1056 14 -1076 14 -20 14 -24 0 -39 -13 -14 -14 -64 -10 -385 3
-203 5 -382 5 -399 -1 -16 -3 -648 -5 -1402 l-4 -1373 62 -64 c35 -35 73 -69
86 -75 35 -18 26 -37 -34 -72 -47 -26 -60 -30 -75 -21 -10 7 -23 12 -29 12 -6
0 -10 -109 -10 -315 0 -255 3 -315 13 -315 20 0 54 -41 59 -72 5 -27 3 -28
-33 -28 l-39 0 0 -299 0 -299 30 -11 c26 -8 30 -15 30 -45 0 -29 -4 -37 -25
-42 -13 -3 -28 -16 -32 -27 -10 -28 -6 -3993 5 -4342 l7 -260 25 3 c51 8 1291
440 1310 457 20 18 20 31 20 802 l0 783 1509 0 1509 0 7 127 c9 146 0 1116
-11 1151 l-6 22 -1388 0 c-763 0 -1428 3 -1478 6 l-92 7 0 203 0 204 170 0
170 0 0 628 -1 627 -44 34 c-58 43 -58 57 0 53 44 -4 45 -4 45 27 0 20 -7 34
-19 41 -11 5 -86 10 -170 10 l-151 0 0 155 0 155 1539 0 1539 0 7 76 c9 96 0
1173 -10 1197 -7 16 -49 17 -686 17 l-679 0 0 -66 0 -65 -32 22 c-18 12 -51
42 -74 66 l-41 43 -781 0 -782 0 0 2604 0 2604 23 6 c12 3 77 6 143 6 105 0
125 3 145 19 l24 19 3 440 c2 418 2 440 -16 462 -22 27 -83 38 -228 39 -74 1
-93 4 -98 17 -3 9 -6 145 -6 303 0 235 3 290 15 307 8 12 47 41 87 65 240 145
358 289 388 472 20 125 17 118 48 110 15 -4 90 -7 167 -7 396 1 785 157 1074
430 391 369 397 866 13 1236 -239 230 -489 362 -807 425 -67 13 -140 17 -286
18 l-197 0 -6 67 c-20 213 -190 419 -449 544 -77 37 -253 97 -413 140 -89 24
-119 27 -289 30 -104 1 -203 0 -220 -3z m290 -532 c234 -110 232 -421 -3 -529
-181 -83 -409 45 -429 241 -10 100 41 202 131 264 60 41 93 51 176 52 52 1 77
-5 125 -28z m-1470 -785 c92 -33 153 -72 220 -140 213 -217 210 -534 -9 -752
-120 -119 -253 -172 -411 -161 -206 13 -390 149 -472 349 -35 85 -44 236 -18
324 61 213 238 368 465 408 49 8 164 -6 225 -28z m3031 3 c125 -39 263 -158
323 -281 77 -155 76 -312 0 -467 -114 -231 -370 -357 -603 -296 -101 26 -166
65 -246 145 -83 82 -129 159 -154 256 -61 238 65 500 295 613 130 64 246 73
385 30z m-1615 -1495 c60 -30 81 -100 47 -158 -42 -72 -126 -96 -188 -53 -101
68 -97 160 11 215 46 24 78 23 130 -4z m-748 -514 c28 -57 34 -90 17 -90 -21
0 -116 23 -123 30 -7 6 -36 110 -37 133 0 4 24 18 53 30 l52 24 6 -36 c3 -20
18 -61 32 -91z m1356 60 c58 -29 105 -116 81 -150 -9 -13 -13 -11 -28 9 -49
71 -37 69 -153 28 l-105 -36 -149 40 c-138 37 -189 59 -173 75 12 12 314 52
401 53 69 1 96 -3 126 -19z m-1071 -349 c4 -72 -13 -91 -84 -91 -57 0 -76 6
-144 48 -81 50 -54 108 28 60 l40 -22 68 32 c38 17 74 30 79 29 6 -2 11 -27
13 -56z m2767 -7296 c21 -8 39 -25 45 -40 12 -31 13 -85 3 -85 -5 0 -30 -7
-56 -15 -45 -14 -49 -13 -69 7 -17 17 -20 29 -15 74 3 29 8 58 12 64 9 14 40
13 80 -5z m-565 -330 c25 -13 62 -41 83 -63 l39 -40 -36 -12 c-36 -12 -40 -18
-52 -83 -6 -33 -3 -42 22 -68 26 -28 27 -29 6 -29 -43 0 -122 22 -146 41 -14
11 -28 35 -32 54 -5 29 -12 36 -43 45 -78 21 -98 58 -67 119 38 72 127 86 226
36z m-1575 -1854 l30 -7 -40 -7 c-22 -4 -57 -12 -77 -17 l-38 -11 27 -40 c42
-64 31 -129 -23 -129 -29 0 -30 7 -3 36 l20 22 -33 5 c-18 4 -56 9 -85 13 -51
6 -62 17 -63 60 0 21 179 83 235 82 11 0 34 -3 50 -7z m-107 -1347 c19 -13 82
-108 82 -124 0 -3 -11 -7 -25 -8 -14 -1 -40 -9 -56 -18 -32 -16 -79 -12 -79 6
0 28 -24 3 -47 -50 -14 -33 -28 -58 -30 -56 -13 13 13 92 43 132 32 42 34 48
24 82 -5 20 -10 40 -10 45 0 13 75 7 98 -9z"/>
<path d="M11599 18683 l-187 -3 -7 -578 c-9 -628 1 -4669 12 -4923 l6 -157
336 -7 c361 -8 2432 1 2644 12 l127 6 0 404 0 403 -1130 0 -1130 0 0 916 0
916 -38 -7 c-46 -7 -144 7 -198 30 l-39 16 28 24 c15 13 27 27 27 31 0 3 -14
24 -31 46 -17 21 -30 40 -28 42 10 9 116 26 164 26 69 0 211 -44 225 -70 5
-10 10 -37 10 -58 l0 -40 1035 0 1035 -1 0 410 0 409 -1095 0 -1094 0 -3 658
c-3 589 -5 662 -21 707 -26 75 -31 81 -61 67 -17 -7 -29 -24 -36 -52 -13 -47
-27 -50 -61 -12 -52 56 -52 56 -28 105 l22 44 61 -24 c51 -21 72 -25 134 -21
l72 5 0 -64 0 -63 30 0 c29 0 31 2 29 38 -2 21 1 43 5 50 16 26 26 10 26 -40
l0 -52 48 52 c27 29 55 52 64 52 8 0 48 -7 87 -16 59 -14 76 -22 100 -51 27
-33 30 -34 92 -31 l64 4 -32 14 c-18 8 -33 17 -33 20 0 3 20 11 45 18 53 14
83 41 92 82 9 48 44 35 58 -21 l6 -26 57 23 c67 28 81 29 89 9 11 -31 59 -45
150 -45 105 0 187 -19 245 -57 l42 -28 395 -3 c218 -2 424 -1 459 3 l62 7 0
392 0 393 -122 6 c-139 8 -2524 16 -2809 10z"/>
<path d="M5912 18648 c3 -31 7 -34 63 -51 149 -46 164 -56 179 -118 9 -41 -27
-52 -146 -43 l-98 7 4 -399 c3 -220 5 -415 5 -434 -1 -19 -3 -1060 -5 -2312
l-4 -2278 430 0 430 0 0 1315 0 1315 1210 0 1210 0 0 -1315 0 -1315 435 0 435
0 -2 2443 -3 2442 -39 5 c-52 7 -85 47 -68 85 9 20 19 25 47 25 31 0 35 -3 35
-25 0 -16 6 -25 15 -25 11 0 15 13 15 54 0 49 -2 54 -25 60 -28 7 -45 40 -45
86 0 23 -5 30 -30 35 -19 4 -36 17 -45 35 -18 34 -38 42 -85 31 -35 -7 -35 -8
-32 -55 2 -48 2 -49 -26 -43 -23 5 -38 -2 -78 -34 -82 -68 -78 -58 -54 -136
18 -59 25 -71 50 -80 58 -22 24 -62 -40 -48 -37 8 -87 65 -95 107 -4 18 -1 46
5 62 12 32 4 42 -62 72 -60 27 -51 47 45 95 45 23 93 50 107 59 14 10 55 26
90 35 91 24 179 16 250 -21 30 -16 58 -30 63 -32 4 -2 7 93 7 212 l0 216 -436
0 -435 0 5 -472 c4 -260 6 -500 6 -533 0 -33 -3 -315 -6 -627 l-5 -568 -1209
0 -1210 0 -2 895 c-3 782 -5 896 -18 909 -8 9 -53 23 -99 31 -93 18 -128 33
-243 107 -84 54 -87 61 -32 103 58 44 109 57 252 62 l132 6 0 43 0 44 -426 0
-425 0 3 -32z m539 -4738 c24 -13 24 -50 1 -147 -15 -63 -20 -70 -35 -62 -9 6
-28 31 -41 57 -28 55 -53 80 -92 91 -61 16 -36 34 81 60 56 12 64 12 86 1z"/>
<path d="M9257 10552 c-158 -339 -287 -622 -287 -628 0 -6 23 -21 50 -34 28
-13 50 -27 50 -31 0 -16 -40 -20 -80 -8 -34 10 -43 10 -54 -2 -21 -21 -1530
-3269 -1522 -3276 8 -8 50 -2 776 120 344 58 669 111 723 120 115 18 131 29
153 106 8 31 24 83 35 115 l19 59 -61 81 c-189 250 -236 520 -137 792 54 150
186 318 313 400 97 62 176 86 297 92 96 4 116 2 190 -21 113 -36 197 -88 288
-177 94 -92 159 -196 202 -320 31 -90 32 -102 32 -235 0 -130 -3 -147 -32
-235 -35 -105 -97 -216 -167 -300 -25 -30 -48 -66 -52 -79 -7 -27 20 -89 42
-97 16 -6 1278 176 1295 186 8 5 -1759 3961 -1779 3982 -4 4 -136 -270 -294
-610z"/>
<path d="M31056 10929 c-59 -127 -105 -233 -103 -235 5 -5 398 44 405 50 6 7
-174 410 -186 414 -4 1 -56 -102 -116 -229z"/>
<path d="M24127 10810 c-301 -24 -575 -90 -822 -200 -457 -202 -807 -504
-1040 -896 -36 -60 -77 -140 -92 -179 -14 -38 -41 -108 -59 -155 -71 -184
-104 -373 -104 -597 0 -143 1 -153 19 -153 39 0 1197 272 1209 284 7 6 23 41
36 77 125 346 428 586 847 671 40 8 136 12 259 12 161 -1 213 -5 299 -23 129
-27 236 -68 321 -123 93 -59 126 -60 286 -10 71 22 314 97 539 166 226 68 423
129 438 135 l28 11 -23 34 c-54 79 -240 286 -328 364 -368 329 -745 505 -1213
567 -145 18 -455 27 -600 15z"/>
<path d="M14450 10663 c-58 -2 -115 -5 -127 -8 l-23 -5 0 -1531 0 -1531 63 7
c34 3 123 15 197 25 74 11 185 24 245 31 61 6 142 20 180 31 45 13 109 21 180
23 61 2 146 11 190 19 44 9 92 16 108 16 l27 0 0 1154 0 1155 -30 18 c-16 9
-30 20 -30 23 0 3 14 14 30 23 l30 18 0 263 0 263 -107 6 c-100 7 -701 6 -933
0z m791 -599 c82 -72 109 -102 109 -120 0 -35 -13 -30 -55 22 -34 41 -39 44
-53 30 -14 -13 -12 -21 12 -76 15 -34 26 -63 24 -66 -2 -2 -20 1 -39 6 -18 6
-37 10 -41 10 -11 0 -77 -123 -84 -157 -4 -20 1 -43 15 -70 30 -60 44 -124 33
-153 -14 -36 -291 -312 -305 -303 -7 4 -31 22 -54 41 -37 29 -43 40 -43 71 0
41 25 101 68 163 47 69 62 105 70 165 7 60 15 69 85 93 l29 10 -31 35 c-36 41
-38 62 -12 136 10 30 24 87 31 127 l12 73 56 29 c32 16 59 29 60 30 2 0 53
-43 113 -96z m-274 -2243 l-10 -79 -60 -17 c-61 -17 -61 -17 -79 5 -17 21 -16
23 10 74 25 49 32 55 87 74 33 11 60 21 60 21 1 1 -3 -35 -8 -78z"/>
<path d="M31257 10645 c-98 -12 -179 -24 -181 -26 -10 -13 -1906 -4096 -1906
-4106 0 -11 511 -396 795 -600 410 -293 1819 -1284 1844 -1298 26 -13 104 -15
571 -15 l541 0 18 -42 c10 -24 116 -268 234 -543 119 -275 231 -529 250 -565
32 -63 41 -71 318 -285 157 -121 343 -267 414 -324 72 -57 155 -115 185 -130
l55 -26 339 -3 c322 -3 338 -2 332 15 -4 10 -811 1808 -1793 3996 -1727 3846
-1787 3977 -1812 3976 -14 -1 -106 -12 -204 -24z m188 -2280 c154 -39 306
-154 410 -309 68 -102 100 -175 125 -280 59 -243 -11 -487 -201 -707 l-48 -56
178 -624 178 -624 -795 -3 c-438 -1 -797 -1 -799 1 -5 5 30 122 203 684 86
282 154 519 154 541 0 31 -14 60 -74 151 -120 181 -163 327 -153 520 13 252
138 469 359 619 132 90 315 124 463 87z m2856 -4726 c16 -32 21 -60 21 -121 0
-44 -3 -82 -5 -85 -3 -2 -19 8 -37 24 -25 22 -33 39 -37 75 -6 49 13 148 28
148 5 0 18 -19 30 -41z"/>
<path d="M17380 9324 l0 -1336 28 5 c15 2 282 38 595 78 l567 74 0 1257 0
1258 -595 0 -595 0 0 -1336z m667 -189 c29 -8 31 -25 15 -125 -7 -47 -11 -109
-8 -138 5 -40 2 -64 -13 -96 -24 -55 -36 -62 -55 -34 -22 31 -20 74 5 115 20
32 20 35 4 69 -15 32 -15 44 -5 100 7 36 10 78 6 95 -6 32 -9 31 51 14z m-287
-487 c12 -11 28 -35 35 -52 16 -38 33 -376 19 -376 -14 0 -62 48 -89 88 -46
71 -66 207 -49 335 6 44 7 45 34 36 15 -6 37 -19 50 -31z"/>
<path d="M36262 10573 c-42 -13 -58 -13 -75 -4 -13 7 -52 11 -92 9 l-70 -3 -3
-947 c-2 -761 1 -963 11 -1026 10 -58 11 -92 4 -132 -7 -36 -12 -1029 -14
-2922 l-3 -2868 600 0 600 0 0 1486 c0 1184 -3 1485 -12 1482 -7 -3 -17 -24
-22 -47 -9 -42 -10 -42 -45 -37 -21 3 -45 0 -59 -7 -35 -20 -101 -105 -138
-179 -19 -38 -39 -68 -44 -68 -6 0 -10 22 -10 48 0 38 9 66 43 128 l42 79 0
190 c0 179 -2 194 -25 255 -19 48 -25 84 -25 140 0 86 27 173 50 164 26 -10
26 -43 1 -107 -35 -87 -34 -122 4 -142 24 -12 30 -13 37 -1 15 25 51 36 117
36 102 0 96 -11 96 171 l0 159 1325 0 1325 0 0 403 c0 222 -3 479 -7 572 l-6
167 -161 -3 c-89 -2 -682 -3 -1318 -1 l-1158 2 0 940 0 940 1369 0 1369 0 7
158 c8 164 0 846 -11 926 l-7 46 -1801 0 c-990 0 -1810 2 -1821 5 -11 2 -44
-3 -73 -12z m928 -2250 c0 -22 -58 -262 -65 -271 -2 -2 -26 11 -54 28 l-51 32
0 89 c0 102 12 123 77 134 21 4 45 8 53 10 35 7 40 4 40 -22z"/>
<path d="M41340 9339 c0 -836 3 -1247 10 -1260 18 -32 30 -21 30 28 0 57 15
46 23 -16 5 -41 3 -47 -29 -76 l-34 -31 0 -147 0 -147 33 0 c54 0 70 -22 81
-107 l7 -53 -56 0 -55 0 0 -2419 0 -2419 104 -7 c139 -10 4206 0 4229 9 16 8
17 44 17 562 l0 554 -1575 0 -1575 0 0 1309 0 1309 55 7 c30 3 57 10 60 15 3
5 10 32 15 61 16 81 50 110 50 42 0 -21 3 -54 6 -74 6 -36 7 -37 62 -43 43 -5
63 -2 91 11 33 16 39 17 66 3 42 -21 168 -20 221 2 39 16 41 16 52 -3 12 -19
39 -19 1145 -19 622 0 1156 3 1185 6 l52 7 0 558 0 559 -1274 0 -1274 0 -6
-22 c-3 -13 -6 -35 -6 -50 0 -30 -15 -45 -27 -26 -4 7 -10 33 -13 58 l-5 45
-227 3 -228 2 0 940 0 940 1573 2 1572 3 3 450 c2 248 0 501 -3 563 l-7 112
-160 0 c-124 0 -159 -3 -155 -12 3 -7 13 -32 22 -55 l17 -43 -53 -121 c-53
-121 -53 -121 -71 -99 -10 12 -21 34 -25 48 -5 21 22 153 53 265 5 16 -94 17
-1985 17 l-1991 0 0 -1241z m2096 523 c9 -47 -1 -154 -17 -183 -9 -16 -14 -19
-15 -9 -2 8 -6 32 -9 54 l-6 39 -60 -6 -59 -7 0 40 0 40 65 0 65 0 0 53 c1 48
2 50 15 33 8 -11 18 -35 21 -54z m-1928 -207 c-3 -88 -7 -106 -31 -147 -15
-26 -32 -50 -37 -53 -14 -9 -13 190 1 256 6 28 20 60 32 72 l20 20 9 -24 c6
-13 8 -69 6 -124z m250 -3240 c19 -24 23 -25 79 -16 32 5 59 8 61 6 3 -3 29
-97 49 -179 28 -119 -7 -259 -74 -299 l-30 -17 -28 75 c-15 41 -30 75 -34 75
-3 0 -22 -23 -41 -50 -19 -27 -37 -50 -41 -50 -29 -1 -69 307 -49 381 12 42
54 99 75 99 8 0 22 -11 33 -25z"/>
<path d="M25783 9583 c-315 -97 -573 -181 -573 -186 0 -13 132 -162 147 -165
8 -2 21 2 29 9 8 6 18 9 21 5 4 -4 24 -53 43 -110 43 -121 165 -320 190 -310
12 4 956 560 969 570 6 5 -234 364 -244 363 -5 0 -268 -79 -582 -176z"/>
<path d="M22785 8709 c-280 -65 -552 -128 -602 -139 l-93 -22 0 -41 c1 -128
60 -402 121 -555 149 -376 445 -721 847 -986 192 -127 372 -212 1067 -508 592
-252 754 -335 963 -492 240 -181 380 -378 456 -638 98 -340 40 -761 -151
-1082 -64 -108 -239 -285 -353 -359 -248 -160 -452 -221 -730 -220 -533 2
-935 228 -1145 643 -81 161 -127 321 -186 650 -17 96 -32 176 -32 176 -1 1
-272 -58 -602 -131 -598 -132 -600 -132 -603 -158 -2 -14 8 -87 23 -162 117
-616 356 -1103 721 -1470 142 -143 326 -285 457 -351 l49 -25 44 36 44 36 55
-46 c38 -33 55 -55 55 -71 0 -50 46 -80 185 -123 254 -78 386 -104 617 -120
310 -23 575 -11 803 34 810 162 1410 617 1765 1340 110 224 175 421 214 650
78 461 17 1069 -141 1402 l-34 73 -32 -16 c-30 -16 -32 -16 -49 6 -24 30 -19
43 20 55 18 5 32 12 32 15 0 13 -99 177 -160 263 -121 173 -392 426 -620 580
-289 196 -478 286 -1285 616 -231 95 -466 195 -523 223 -276 135 -498 331
-596 525 -53 107 -70 193 -68 361 1 115 -1 152 -11 151 -6 0 -241 -54 -522
-120z"/>
<path d="M18125 8010 c-280 -38 -534 -71 -562 -75 l-53 -6 0 -97 c0 -101 -4
-114 -32 -125 -17 -6 -18 -135 -18 -2512 l0 -2505 1760 0 1760 0 0 555 0 555
-920 0 -920 0 -5 -27 c-16 -73 -42 -80 -51 -14 l-7 51 -206 2 -206 3 -3 2133
c-2 1696 -5 2132 -15 2131 -6 -1 -241 -32 -522 -69z m115 -3812 c11 -37 1
-150 -14 -165 -2 -3 -15 1 -27 8 -20 10 -26 8 -47 -17 -24 -27 -24 -32 -17
-114 8 -91 7 -118 -3 -250 -7 -83 -8 -85 -34 -88 -36 -4 -74 34 -84 84 -6 33
-4 40 16 53 62 43 80 68 80 114 0 25 -7 58 -16 74 -16 27 -15 31 5 75 24 54
27 122 6 158 -8 14 -14 44 -15 68 l0 42 70 0 69 0 11 -42z"/>
<path d="M14990 7600 c-278 -38 -529 -71 -557 -75 l-53 -6 0 -1418 0 -1418 26
-11 25 -12 -28 -24 -28 -24 -3 -919 c-2 -505 0 -937 3 -960 l6 -43 600 0 599
0 0 225 c0 183 -3 225 -13 223 -8 -2 -36 22 -64 52 -28 30 -54 52 -57 49 -3
-3 -12 -34 -19 -70 l-13 -64 -66 65 c-54 54 -67 74 -77 117 -14 55 -8 104 15
141 11 17 24 22 53 22 36 0 41 -4 65 -44 32 -54 66 -77 119 -79 l42 -2 3 2173
2 2172 -37 -1 c-21 -1 -265 -32 -543 -69z m-126 -571 c42 -20 62 -100 45 -182
-17 -78 -97 -279 -122 -305 l-22 -24 -11 49 c-11 49 -10 49 -62 40 -7 -1 -23
15 -35 36 -21 38 -22 39 -2 49 39 22 65 57 65 87 0 27 -5 31 -46 43 l-45 13
41 60 c56 80 89 115 125 131 37 16 39 17 69 3z m-43 -880 l39 -12 0 -53 c0
-49 -3 -55 -29 -68 -31 -16 -41 -34 -41 -71 0 -31 -12 -38 -36 -21 -17 13 -18
22 -7 152 13 154 26 210 31 132 3 -46 5 -48 43 -59z m80 -3095 c-15 -51 -40
-80 -77 -88 -29 -6 -31 -4 -42 32 -7 22 -12 48 -12 59 0 29 35 56 83 63 52 7
64 -9 48 -66z"/>
<path d="M11070 7060 c-812 -121 -963 -145 -966 -155 -3 -6 68 -264 156 -574
88 -309 160 -567 160 -573 0 -10 -1583 -8 -1594 3 -3 3 37 144 90 315 182 589
204 668 194 678 -11 11 -1542 -240 -1580 -259 -48 -25 -71 -63 -203 -350 -74
-160 -455 -978 -847 -1820 -768 -1649 -750 -1610 -750 -1631 0 -12 95 -14 644
-14 l644 0 102 223 c57 122 188 409 292 637 105 228 203 441 219 472 17 34 29
73 29 96 0 30 12 57 53 119 29 44 82 144 117 222 l64 141 1684 -2 1685 -3 82
-190 c45 -104 227 -527 405 -938 178 -412 330 -755 337 -763 12 -12 120 -14
664 -14 357 0 649 2 649 5 0 17 -86 208 -1451 3249 -91 203 -135 276 -165 276
-6 0 -18 7 -25 16 -11 14 -10 19 11 34 l24 18 -186 413 c-104 231 -192 415
-200 416 -7 0 -159 -21 -338 -47z m990 -3225 c37 -39 54 -42 105 -21 28 12 35
12 35 2 0 -21 -31 -43 -102 -71 -63 -25 -72 -26 -118 -15 -27 7 -61 21 -74 31
-22 17 -24 23 -15 47 18 48 38 62 89 62 40 0 51 -5 80 -35z"/>
<path d="M28988 6403 c-27 -60 -98 -209 -156 -333 l-106 -225 -2 -83 c-2 -93
-13 -113 -55 -109 l-29 2 -690 -1482 c-380 -815 -690 -1484 -690 -1487 0 -3
282 -6 628 -6 595 0 629 1 658 19 24 15 44 49 96 162 211 460 676 1475 731
1594 l64 140 1127 5 1128 5 -24 21 c-122 110 -1078 785 -1116 788 -11 1 -18
-9 -22 -29 -3 -17 -12 -31 -23 -33 -14 -3 -17 4 -17 46 0 34 -6 57 -19 74 -11
14 -84 71 -163 128 -79 57 -379 278 -668 490 -556 408 -573 420 -590 420 -6 0
-34 -48 -62 -107z m-423 -3034 c20 -23 51 -71 69 -108 29 -61 31 -74 31 -173
l0 -108 -37 -37 -37 -37 -27 24 c-14 14 -52 78 -85 143 l-59 118 0 95 c0 52 3
94 8 94 4 0 16 -7 26 -15 27 -21 32 -19 46 15 7 17 16 30 20 30 4 0 24 -19 45
-41z"/>
<path d="M2910 5046 c-770 -265 -820 -283 -841 -301 -18 -17 -19 -35 -19 -492
l0 -473 34 0 c18 0 39 -7 46 -15 10 -12 3 -23 -34 -61 l-46 -46 0 -164 0 -163
38 -10 c20 -5 61 -14 90 -21 56 -13 71 -28 64 -66 l-4 -25 -35 21 c-19 11 -36
20 -38 20 -2 0 -1 -22 2 -49 l6 -50 -62 -7 -61 -7 0 -307 0 -307 53 -7 c68 -8
1128 -8 1235 1 l82 6 0 808 c0 445 -2 809 -5 809 -3 0 -36 -15 -74 -34 l-68
-35 -6 -93 c-4 -51 -11 -110 -17 -130 -11 -39 -57 -84 -95 -94 -44 -11 -144
55 -176 117 -11 22 -47 66 -80 98 -34 34 -59 66 -59 78 0 41 52 199 92 280
l41 82 31 -16 c17 -9 116 -61 220 -115 103 -54 191 -96 195 -93 9 10 7 943 -2
988 -4 20 -13 37 -20 37 -7 -1 -226 -74 -487 -164z m-162 -2030 c22 -19 52
-76 52 -97 0 -5 -19 -9 -42 -9 -35 0 -47 -6 -79 -39 -20 -22 -42 -56 -49 -75
-14 -43 -25 -45 -62 -9 -25 24 -28 34 -28 90 0 72 16 112 56 138 59 38 111 39
152 1z"/>
<path d="M33294 3387 c-3 -8 59 -165 138 -348 116 -270 148 -336 168 -346 18
-9 99 -13 301 -13 248 0 278 2 283 16 4 9 5 18 4 19 -43 35 -867 673 -876 679
-7 4 -14 1 -18 -7z"/>
<path d="M36697 1399 c-230 -4 -421 -10 -425 -13 -3 -4 1 -13 9 -20 61 -58
1484 -1186 1518 -1203 l44 -23 3898 0 3897 0 8 32 c10 43 10 1026 0 1141 l-8
87 -2493 0 -2493 0 -30 -35 -31 -34 -20 33 c-20 32 -22 33 -112 39 -124 9
-3236 6 -3762 -4z m3362 -579 c33 -27 62 -54 66 -59 3 -6 -4 -45 -15 -87 -11
-43 -20 -94 -20 -114 0 -49 -27 -73 -81 -73 -54 0 -93 29 -97 73 -3 25 7 48
42 101 51 77 53 85 29 126 -16 30 -12 83 7 83 5 0 36 -22 69 -50z m437 -281
c14 -7 47 -67 93 -166 l70 -156 -20 -28 c-11 -16 -23 -29 -27 -29 -4 0 -26 42
-50 93 l-44 92 -39 -78 c-43 -84 -56 -91 -128 -66 -29 10 -31 14 -31 63 0 31
11 84 26 127 21 61 25 86 20 141 -4 57 -2 71 15 93 l21 25 36 -49 c21 -28 47
-55 58 -62z"/>
<path d="M6938 1273 c-4082 -3 -4528 -5 -4528 -19 0 -8 17 -22 38 -31 45 -18
39 -12 47 -53 6 -33 4 -37 -33 -58 -55 -31 -77 -28 -123 16 -41 38 -41 38 -29
81 6 24 8 46 5 50 -9 8 -446 8 -467 -1 -17 -7 -18 -46 -18 -627 l0 -619 73 -7
c39 -4 248 -4 462 -1 215 3 415 5 445 5 30 0 1461 -2 3180 -4 2661 -3 3132 -2
3170 10 33 11 56 12 85 5 25 -6 1570 -10 4093 -10 l4053 0 -7 75 c-4 41 -4 75
-1 75 3 0 16 -32 28 -70 l23 -70 175 2 174 3 10 30 c13 41 14 42 39 10 46 -59
-15 -56 1256 -55 642 1 1188 4 1215 7 54 6 65 30 17 40 -38 7 -40 40 -6 80
l25 28 14 -35 c8 -19 22 -52 30 -73 l16 -37 2664 0 2665 0 26 72 c15 39 32
116 39 170 11 95 17 107 46 89 11 -7 9 -27 -13 -118 -14 -60 -26 -133 -26
-161 l0 -52 1061 0 1061 0 -60 64 c-72 77 -97 141 -89 221 7 69 29 111 62 117
20 4 26 1 29 -16 2 -11 9 -50 16 -86 11 -63 53 -166 83 -203 14 -17 17 -17 66
3 29 11 53 20 55 20 2 0 7 -27 11 -60 l7 -60 654 0 653 0 16 54 c11 36 15 85
13 152 -2 75 1 106 14 128 15 29 16 28 28 -93 12 -112 16 -125 47 -169 18 -26
33 -53 33 -59 0 -11 317 -13 1582 -11 l1581 3 12 35 12 35 32 -33 c18 -18 41
-37 51 -42 21 -11 4806 -13 4879 -2 l44 7 -262 208 c-145 115 -264 207 -266
205 -3 -2 -11 -19 -19 -38 -16 -37 -20 -33 -30 31 -4 21 -16 49 -28 64 -12 15
-177 152 -367 305 -190 152 -391 314 -446 359 -61 49 -121 89 -153 101 -52 20
-88 20 -3093 20 l-3040 0 -14 -32 c-11 -28 -15 -30 -20 -15 -4 10 -20 24 -36
32 -28 15 -6072 17 -23041 8z m23060 -340 c11 -43 23 -90 26 -104 3 -14 15
-36 26 -49 26 -30 28 -100 3 -100 -9 0 -28 14 -43 32 l-26 31 -33 -24 c-32
-23 -33 -24 -47 -5 -24 33 -28 85 -10 122 9 19 21 66 27 104 11 62 14 70 34
70 20 0 25 -10 43 -77z m-19598 -77 l55 -12 3 -62 3 -61 -66 24 c-36 14 -68
25 -72 25 -3 0 -3 -18 0 -40 4 -33 2 -40 -12 -40 -44 0 -69 87 -46 158 8 26
49 28 135 8z m10227 -256 c18 -11 35 -31 39 -44 6 -25 -21 -111 -38 -122 -12
-8 -65 51 -72 81 -8 32 11 105 27 105 7 0 27 -9 44 -20z m-13435 -187 c-4 -87
-18 -143 -35 -143 -24 1 -97 39 -98 52 -8 92 41 165 111 167 25 1 25 1 22 -76z
m25219 -30 c111 -128 122 -143 116 -150 -12 -11 -112 19 -144 43 -41 31 -73
92 -73 138 0 30 8 66 15 66 1 0 40 -44 86 -97z"/>
</g>
</svg>
